<mxfile host="65bd71144e">
    <diagram id="K9tdpp2gKXIHnt1HSWHF" name="Página-1">
        <mxGraphModel dx="1163" dy="2616" grid="1" gridSize="10" guides="1" tooltips="1" connect="1" arrows="1" fold="1" page="1" pageScale="1" pageWidth="1600" pageHeight="900" background="#ffffff" math="0" shadow="0">
            <root>
                <mxCell id="0"/>
                <mxCell id="1" parent="0"/>
                <UserObject label="" lucidchartObjectId="sv5FRH7WopwM" id="27">
                    <mxCell style="html=1;jettySize=18;whiteSpace=wrap;fontSize=13.3;fontColor=#333333;fontStyle=1;strokeColor=#5E5E5E;strokeWidth=1.5;rounded=1;arcSize=12;edgeStyle=orthogonalEdgeStyle;startArrow=none;endArrow=block;endFill=1;exitX=0.009;exitY=0.5;exitPerimeter=0;entryX=0.009;entryY=0.5;entryPerimeter=0;" parent="1" edge="1">
                        <mxGeometry width="100" height="100" relative="1" as="geometry">
                            <Array as="points">
                                <mxPoint x="735" y="1425"/>
                                <mxPoint x="735" y="1114"/>
                            </Array>
                            <mxPoint x="836.1699999999992" y="1113.999999999999" as="targetPoint"/>
                        </mxGeometry>
                    </mxCell>
                </UserObject>
                <mxCell id="28" value="Não" style="text;html=1;resizable=0;labelBackgroundColor=default;align=center;verticalAlign=middle;fontStyle=1;fontColor=#333333;fontSize=13.3;rounded=1;" parent="27" vertex="1">
                    <mxGeometry relative="1" as="geometry"/>
                </mxCell>
                <UserObject label="QUESTÃO 06 - AdemarROV" lucidchartObjectId="hB5FAly2sNbj" id="34">
                    <mxCell style="html=1;overflow=block;blockSpacing=1;whiteSpace=wrap;fontSize=16.7;fontColor=#333333;spacing=0;strokeColor=#5e5e5e;strokeOpacity=100;rounded=1;absoluteArcSize=1;arcSize=9;strokeWidth=2.3;fillColor=none;" parent="1" vertex="1">
                        <mxGeometry x="230" y="-1750" width="180" height="45" as="geometry"/>
                    </mxCell>
                </UserObject>
                <mxCell id="105" value="" style="edgeStyle=orthogonalEdgeStyle;rounded=1;html=1;strokeColor=#000000;" parent="1" source="67" target="104" edge="1">
                    <mxGeometry relative="1" as="geometry"/>
                </mxCell>
                <UserObject label="INICIO" lucidchartObjectId="Ef6FRvu7aNQY" id="67">
                    <mxCell style="html=1;overflow=block;blockSpacing=1;whiteSpace=wrap;ellipse;fontSize=13;spacing=3.8;strokeColor=#5e5e5e;strokeOpacity=100;rounded=1;absoluteArcSize=1;arcSize=9;strokeWidth=2.3;" parent="1" vertex="1">
                        <mxGeometry x="580" y="-1772.5" width="120" height="90" as="geometry"/>
                    </mxCell>
                </UserObject>
                <UserObject label="FIM" lucidchartObjectId="Ef6FRvu7aNQY" id="92">
                    <mxCell style="html=1;overflow=block;blockSpacing=1;whiteSpace=wrap;ellipse;fontSize=13;spacing=3.8;strokeColor=#5e5e5e;strokeOpacity=100;rounded=1;absoluteArcSize=1;arcSize=9;strokeWidth=2.3;" parent="1" vertex="1">
                        <mxGeometry x="1030" y="-1247.5" width="120" height="70" as="geometry"/>
                    </mxCell>
                </UserObject>
                <mxCell id="97" value="" style="edgeStyle=none;rounded=1;html=1;" parent="1" source="95" target="96" edge="1">
                    <mxGeometry relative="1" as="geometry"/>
                </mxCell>
                <mxCell id="95" value="meta_diaria" style="shape=manualInput;whiteSpace=wrap;html=1;rounded=1;" parent="1" vertex="1">
                    <mxGeometry x="570.77" y="-1460" width="129.23" height="90" as="geometry"/>
                </mxCell>
                <mxCell id="101" style="edgeStyle=none;rounded=1;html=1;exitX=1;exitY=0.5;exitDx=0;exitDy=0;entryX=0;entryY=0.5;entryDx=0;entryDy=0;entryPerimeter=0;strokeColor=#00CC00;" parent="1" source="96" target="98" edge="1">
                    <mxGeometry relative="1" as="geometry">
                        <mxPoint x="640" y="-1070" as="targetPoint"/>
                    </mxGeometry>
                </mxCell>
                <mxCell id="103" value="SIM" style="edgeLabel;html=1;align=center;verticalAlign=middle;resizable=0;points=[];" parent="101" vertex="1" connectable="0">
                    <mxGeometry x="-0.22" relative="1" as="geometry">
                        <mxPoint as="offset"/>
                    </mxGeometry>
                </mxCell>
                <mxCell id="108" value="" style="edgeStyle=orthogonalEdgeStyle;rounded=1;html=1;strokeColor=#FF0000;" parent="1" source="96" target="107" edge="1">
                    <mxGeometry relative="1" as="geometry"/>
                </mxCell>
                <mxCell id="109" value="NÃO" style="edgeLabel;html=1;align=center;verticalAlign=middle;resizable=0;points=[];" parent="108" vertex="1" connectable="0">
                    <mxGeometry x="-0.1289" relative="1" as="geometry">
                        <mxPoint as="offset"/>
                    </mxGeometry>
                </mxCell>
                <mxCell id="96" value="minutos_estudo = meta_diaria" style="rhombus;whiteSpace=wrap;html=1;rounded=1;" parent="1" vertex="1">
                    <mxGeometry x="569.61" y="-1280" width="135" height="135" as="geometry"/>
                </mxCell>
                <mxCell id="102" style="edgeStyle=none;rounded=1;html=1;entryX=0;entryY=0.5;entryDx=0;entryDy=0;exitX=1;exitY=0.5;exitDx=0;exitDy=0;exitPerimeter=0;" parent="1" source="98" target="92" edge="1">
                    <mxGeometry relative="1" as="geometry">
                        <mxPoint x="640" y="-1010" as="sourcePoint"/>
                    </mxGeometry>
                </mxCell>
                <mxCell id="98" value="&quot;Meta atingida! Bom descanso!&quot;" style="shape=display;whiteSpace=wrap;html=1;rounded=1;" parent="1" vertex="1">
                    <mxGeometry x="820" y="-1247.5" width="140" height="70" as="geometry"/>
                </mxCell>
                <mxCell id="106" style="edgeStyle=orthogonalEdgeStyle;rounded=1;html=1;exitX=0.5;exitY=1;exitDx=0;exitDy=0;entryX=0.524;entryY=0.111;entryDx=0;entryDy=0;entryPerimeter=0;strokeColor=#000000;" parent="1" source="104" target="95" edge="1">
                    <mxGeometry relative="1" as="geometry"/>
                </mxCell>
                <mxCell id="104" value="minutos_estudo &amp;lt;- 0" style="whiteSpace=wrap;html=1;fontSize=13;strokeColor=#5e5e5e;spacing=3.8;rounded=1;arcSize=9;strokeWidth=2.3;" parent="1" vertex="1">
                    <mxGeometry x="576.73" y="-1590" width="125" height="62.5" as="geometry"/>
                </mxCell>
                <mxCell id="110" style="edgeStyle=orthogonalEdgeStyle;rounded=1;html=1;exitX=0;exitY=0.5;exitDx=0;exitDy=0;entryX=0;entryY=0.5;entryDx=0;entryDy=0;strokeColor=#000000;" parent="1" source="107" target="96" edge="1">
                    <mxGeometry relative="1" as="geometry">
                        <Array as="points">
                            <mxPoint x="520" y="-1040"/>
                            <mxPoint x="520" y="-1212"/>
                        </Array>
                    </mxGeometry>
                </mxCell>
                <mxCell id="107" value="minutos_estudo &amp;lt;- minutos_estudos + 1" style="whiteSpace=wrap;html=1;rounded=1;" parent="1" vertex="1">
                    <mxGeometry x="577.11" y="-1070" width="120" height="60" as="geometry"/>
                </mxCell>
            </root>
        </mxGraphModel>
    </diagram>
</mxfile>